<svg width="60" height="60" viewBox="0 0 60 60" fill="none" xmlns="http://www.w3.org/2000/svg">
<g clip-path="url(#clip0_494_12)">
<path d="M44.5137 0H15.4856C14.9487 0 14.5137 0.435162 14.5137 0.971922C14.5137 1.50868 14.9487 1.94384 15.4856 1.94384H16.5871V54.8812C16.5871 56.2206 17.4567 57.36 18.6605 57.7667V59.0281C18.6605 59.5648 19.0956 60 19.6325 60C20.1694 60 20.6044 59.5648 20.6044 59.0281V57.9266H39.3949V59.0281C39.3949 59.5648 39.8299 60 40.3668 60C40.9037 60 41.3387 59.5648 41.3387 59.0281V57.7667C42.5426 57.36 43.4122 56.2206 43.4122 54.8812V1.94384H44.5137C45.0506 1.94384 45.4856 1.50868 45.4856 0.971922C45.4856 0.435162 45.0504 0 44.5137 0ZM18.531 6.09071H29.0277V55.9827H19.6325C19.0251 55.9827 18.531 55.4886 18.531 54.8812V6.09071ZM40.3668 55.9827H30.9716V6.09071H41.4683V54.8812C41.4683 55.4886 40.9741 55.9827 40.3668 55.9827ZM41.4683 4.14687H18.531V1.94384H41.4683V4.14687Z" fill="white"/>
<path d="M24.8159 34.0821C26.4951 34.0821 27.8612 32.7159 27.8612 31.0367C27.8612 29.3575 26.4951 27.9914 24.8159 27.9914C23.1366 27.9914 21.7705 29.3575 21.7705 31.0367C21.7705 32.7159 23.1366 34.0821 24.8159 34.0821ZM24.8159 29.9352C25.4233 29.9352 25.9174 30.4293 25.9174 31.0367C25.9174 31.6441 25.4233 32.1382 24.8159 32.1382C24.2085 32.1382 23.7144 31.6441 23.7144 31.0367C23.7144 30.4293 24.2085 29.9352 24.8159 29.9352Z" fill="white"/>
<path d="M35.1831 27.9914C33.5038 27.9914 32.1377 29.3575 32.1377 31.0367C32.1377 32.7159 33.5038 34.0821 35.1831 34.0821C36.8623 34.0821 38.2284 32.7159 38.2284 31.0367C38.2284 29.3575 36.8623 27.9914 35.1831 27.9914ZM35.1831 32.1382C34.5757 32.1382 34.0815 31.6441 34.0815 31.0367C34.0815 30.4293 34.5757 29.9352 35.1831 29.9352C35.7904 29.9352 36.2846 30.4293 36.2846 31.0367C36.2846 31.6441 35.7903 32.1382 35.1831 32.1382Z" fill="white"/>
</g>
<defs>
<clipPath id="clip0_494_12">
<rect width="60" height="60" fill="white"/>
</clipPath>
</defs>
</svg>
