<svg width="60" height="61" viewBox="0 0 60 61" fill="none" xmlns="http://www.w3.org/2000/svg">
<path d="M42.5 53.375V40.6667M17.5 53.375V40.6667" stroke="white" stroke-width="2" stroke-linecap="round"/>
<path d="M38.7493 30.5H21.2492C17.1244 30.5 15.062 30.5 13.7806 31.9889C13.0659 32.8193 12.7498 33.932 12.61 35.5854C12.4164 37.8754 12.3196 39.0204 13.0626 39.8437C13.8056 40.6667 15.0368 40.6667 17.4992 40.6667H42.4993C44.9615 40.6667 46.1928 40.6667 46.9358 39.8437C47.6788 39.0204 47.582 37.8754 47.3883 35.5854C47.2485 33.932 46.9325 32.8193 46.2178 31.9889C44.9363 30.5 42.874 30.5 38.7493 30.5Z" stroke="white" stroke-width="2"/>
<path d="M17.5 20.3333C17.5 15.5824 17.5 13.2069 18.5048 11.4375C19.1631 10.2783 20.1098 9.31579 21.25 8.64655C22.9904 7.625 25.327 7.625 30 7.625C34.673 7.625 37.0095 7.625 38.75 8.64655C39.8902 9.31579 40.837 10.2783 41.4952 11.4375C42.5 13.2069 42.5 15.5824 42.5 20.3333V30.5H17.5V20.3333Z" stroke="white" stroke-width="2"/>
</svg>
