<svg width="60" height="61" viewBox="0 0 60 61" fill="none" xmlns="http://www.w3.org/2000/svg">
<path d="M13.5752 0L13.2752 0.800625L3.6752 27.6406L3.0752 29.28H23.3252C22.3736 30.276 21.6002 31.6485 21.6002 33.4356C21.6002 37.1433 22.9736 39.4594 24.1502 41.785C25.2189 43.8962 26.1893 46.1313 26.3627 50.02H20.4002C19.0877 50.02 18.0002 51.1256 18.0002 52.46V53.68H14.4002C13.0877 53.68 12.0002 54.7856 12.0002 56.12V61H48.0002V56.12C48.0002 54.7856 46.9127 53.68 45.6002 53.68H42.0002V52.46C42.0002 51.1256 40.9127 50.02 39.6002 50.02H33.6377C33.8111 46.1313 34.7814 43.8962 35.8502 41.785C37.0268 39.4594 38.4002 37.1433 38.4002 33.4356C38.4002 31.6485 37.6268 30.276 36.6752 29.28H56.9252L56.3252 27.6406L46.7252 0.800625L46.4252 0H13.5752ZM15.2252 2.44H44.7752L53.4752 26.84H27.9002C27.7736 26.8209 27.6518 26.8209 27.5252 26.84H6.5252L15.2252 2.44ZM27.8252 29.28H32.1752C32.3346 29.3277 33.1971 29.5802 34.1252 30.2331C35.1424 30.948 36.0002 31.9106 36.0002 33.4356C36.0002 36.5619 34.9736 38.2632 33.7502 40.6794C32.6299 42.8954 31.4299 45.6547 31.2377 50.02H28.7627C28.5705 45.6547 27.3705 42.8954 26.2502 40.6794C25.0268 38.2632 24.0002 36.5619 24.0002 33.4356C24.0002 31.9106 24.858 30.948 25.8752 30.2331C26.8033 29.5802 27.6658 29.3277 27.8252 29.28ZM20.4002 52.46H39.6002V53.68H20.4002V52.46ZM14.4002 56.12H45.6002V58.56H14.4002V56.12Z" fill="white"/>
</svg>
