<svg width="60" height="60" viewBox="0 0 60 60" fill="none" xmlns="http://www.w3.org/2000/svg">
<path d="M47.5042 9.19067H12.4958L0 20.0409V20.482V26.6153V26.7516V50.8093H7.74211V26.7516H10.4845V42.4301H17.2588V26.7516H42.7403V42.4301H49.5154V26.7516H52.257V50.8093H60V26.7516V26.6153V20.0399L47.5042 9.19067ZM13.2178 11.1265H46.7812L56.7197 19.7555H3.27937L13.2178 11.1265ZM5.80641 48.8736H1.93582V26.7516H5.80641V48.8736ZM15.3231 40.4942H12.4204V26.7516H15.3231V40.4942ZM47.5798 40.4942H44.6761V26.7516H47.5798V40.4942ZM58.0643 48.8736H54.1928V26.7516H58.0643V48.8736ZM58.0643 24.8159H1.93582V21.2077H58.0643V24.8159Z" fill="white"/>
</svg>
